#N canvas 13 5 1011 711 12;
#X obj 26 322 +~;
#X obj 200 219 *~;
#X obj 24 28 inlet~;
#X obj 26 538 outlet~;
#X obj 400 100 cnv 15 250 290 empty empty Delay 20 12 0 14 -66577 -24198
0;
#X obj 553 195 vsl 15 128 0 1 0 0 empty empty FX_Volume -25 140 0 8
-62784 -24198 -24198 0 1;
#X obj 494 156 nbx 5 14 0 5000 0 0 empty empty Delay_Time_(ms) -25
23 0 8 -62784 -24198 -24198 0 256;
#X obj 464 195 vsl 15 128 0 1 0 0 empty empty Dry_Volume -25 140 0
8 -62784 -24198 -24198 0 1;
#X obj 25 262 *~ 1;
#X msg 201 380 1;
#X msg 244 380 0;
#X obj 202 351 select 0;
#X obj 420 130 tgl 15 0 empty empty On/Off 18 8 0 8 -62784 -24198 -24198
0 1;
#X obj 73 433 *~ 1;
#X obj 25 377 *~ 0;
#X obj 572 255 nbx 4 14 0 100 0 0 empty empty empty -25 23 0 8 -62784
-24198 -24198 0 256;
#X obj 673 262 * 100;
#X obj 482 254 nbx 4 14 0 100 0 0 empty empty empty -25 23 0 8 -62784
-24198 -24198 0 256;
#X obj 336 259 * 100;
#X obj 72 484 *~ 1;
#X obj 200 78 delwrite~ delD 1000;
#X obj 43 92 s~ DrySignalD;
#X obj 200 111 r Del_TimeD;
#X obj 200 144 delread~ delD 1;
#X obj 219 183 r FXVolumeD;
#X obj 124 305 r switchD;
#X obj 73 379 r~ DrySignalD;
#X obj 52 225 r DryVolumeD;
#X obj 403 67 s switchD;
#X obj 520 61 s Del_TimeD;
#X obj 594 399 s FXVolumeD;
#X obj 480 398 s DryVolumeD;
#X obj 111 457 r SerialConD;
#X obj 372 398 s SerialConD;
#X obj 420 364 tgl 15 0 empty empty Dry_Out 18 8 0 8 -62784 -24198
-24198 0 1;
#X obj 327 300 loadbang;
#X msg 327 327 0;
#X connect 0 0 14 0;
#X connect 1 0 0 1;
#X connect 2 0 8 0;
#X connect 2 0 20 0;
#X connect 2 0 21 0;
#X connect 5 0 16 0;
#X connect 5 0 30 0;
#X connect 6 0 29 0;
#X connect 7 0 18 0;
#X connect 7 0 31 0;
#X connect 8 0 0 0;
#X connect 9 0 13 1;
#X connect 10 0 13 1;
#X connect 11 0 9 0;
#X connect 11 1 10 0;
#X connect 12 0 28 0;
#X connect 13 0 19 0;
#X connect 14 0 3 0;
#X connect 16 0 15 0;
#X connect 18 0 17 0;
#X connect 19 0 3 0;
#X connect 22 0 23 0;
#X connect 23 0 1 0;
#X connect 24 0 1 1;
#X connect 25 0 11 0;
#X connect 25 0 14 1;
#X connect 26 0 13 0;
#X connect 27 0 8 1;
#X connect 32 0 19 1;
#X connect 34 0 33 0;
#X connect 35 0 36 0;
#X connect 36 0 34 0;
#X coords 0 -1 1 1 250 290 1 400 100;
