#N canvas 0 2 1011 711 12;
#X obj 104 236 +~;
#X obj 145 203 *~;
#X obj 103 21 inlet~;
#X obj 102 601 outlet~;
#X obj 501 100 cnv 15 260 290 empty empty Feedback_Delay 20 12 0 14
-66577 -24198 0;
#X obj 573 204 vsl 15 128 0 1 0 0 empty empty Feedback -18 140 0 8
-62784 -24198 -24198 2600 1;
#X obj 651 204 vsl 15 128 0 1 0 0 empty empty Dry/Wet -25 140 0 8 -62784
-24198 -24198 5900 1;
#X obj 602 160 nbx 5 14 0 5000 0 0 empty empty Delay_Time_(ms) -25
23 0 8 -62784 -24198 -24198 137 256;
#X obj 777 413 s FXVolumeFD;
#X obj 665 415 s FeedbackFD;
#X obj 145 129 delread~ delFD 1;
#X obj 145 96 r Del_TimeFD;
#X obj 774 180 s Del_TimeFD;
#X obj 176 178 r FeedbackFD;
#X msg 289 480 1;
#X msg 339 480 0;
#X obj 294 451 select 0;
#X obj 183 55 s~ DrySignalFD;
#X obj 163 471 r~ DrySignalFD;
#X obj 186 417 r switchFD;
#X obj 522 131 tgl 15 0 empty empty On/Off 18 8 0 8 -62784 -24198 -24198
0 1;
#X obj 504 67 s switchFD;
#X obj 164 519 *~ 1;
#X obj 103 475 *~ 0;
#X obj 117 306 delwrite~ delFD 5000;
#X obj 130 353 r FXVolumeFD;
#X obj 103 383 *~ 1;
#X obj 669 266 nbx 4 14 0 100 0 0 empty empty empty -25 23 0 8 -62784
-24198 -24198 46.4567 256;
#X obj 806 288 * 100;
#X obj 591 266 nbx 4 14 0 1 0 0 empty empty empty -25 23 0 8 -62784
-24198 -24198 0.204724 256;
#X obj 518 364 tgl 15 0 empty empty Dry_Out 18 8 0 8 -62784 -24198
-24198 0 1;
#X obj 420 325 loadbang;
#X obj 490 415 s SerialConFD;
#X obj 208 526 r SerialConFD;
#X obj 163 550 *~ 1;
#X msg 702 477 1;
#X obj 702 506 - 1;
#X obj 702 450 bang;
#X obj 702 538 s FDDryVol;
#X obj 28 213 *~;
#X obj 9 142 r FDDryVol;
#X obj 36 415 +~;
#X msg 420 352 0;
#X connect 0 0 24 0;
#X connect 0 0 26 0;
#X connect 1 0 0 1;
#X connect 2 0 17 0;
#X connect 2 0 0 0;
#X connect 2 0 39 0;
#X connect 5 0 9 0;
#X connect 5 0 29 0;
#X connect 6 0 8 0;
#X connect 6 0 28 0;
#X connect 6 0 37 0;
#X connect 6 0 36 1;
#X connect 7 0 12 0;
#X connect 10 0 1 0;
#X connect 11 0 10 0;
#X connect 13 0 1 1;
#X connect 14 0 22 1;
#X connect 15 0 22 1;
#X connect 16 0 14 0;
#X connect 16 1 15 0;
#X connect 18 0 22 0;
#X connect 19 0 16 0;
#X connect 19 0 23 1;
#X connect 20 0 21 0;
#X connect 22 0 34 0;
#X connect 23 0 3 0;
#X connect 25 0 26 1;
#X connect 26 0 41 1;
#X connect 28 0 27 0;
#X connect 30 0 32 0;
#X connect 31 0 42 0;
#X connect 33 0 34 1;
#X connect 34 0 3 0;
#X connect 35 0 36 0;
#X connect 36 0 38 0;
#X connect 37 0 35 0;
#X connect 39 0 41 0;
#X connect 40 0 39 1;
#X connect 41 0 23 0;
#X connect 42 0 30 0;
#X coords 0 -1 1 1 260 290 1 500 100;
