#N canvas 120 8 908 688 12;
#X obj 31 141 soundfiler;
#X obj 31 87 openpanel;
#X floatatom 291 71 10 0 0 0 - - -;
#X msg 31 115 read -resize \$1 array1;
#X floatatom 291 137 10 0 0 0 - - -;
#X obj 291 104 / 44.1;
#X obj 348 166 s msec;
#X obj 357 96 s smpl;
#X obj 31 169 s smpl_num;
#X obj 291 36 r smpl_num;
#X text 382 70 Number of Samples;
#X text 384 136 Duration (msec);
#X text 289 197 -----------------------------;
#X text 16 213 ---------File Player---------;
#X obj 300 301 cnv 15 300 145 empty empty File_Player 20 12 0 14 -66577
-24198 0;
#X obj 310 273 s open;
#X obj 31 61 r open;
#X obj 503 343 tgl 10 0 empty empty Loop-On/Off 15 6 1 8 -62784 -24198
-24198 0 1;
#X obj 423 275 s loop;
#X obj 306 453 s play;
#X text 285 9 ---------File Details--------;
#X obj 616 393 vsl 10 40 0.0001 100 1 0 empty empty Speed 15 23 1 8
-62784 -24198 -24198 3092 1;
#X obj 535 453 s reset;
#X obj 369 411 bng 10 250 10 0 empty empty Play 15 6 1 8 -62784 -24198
-24198;
#X obj 326 344 bng 10 250 10 0 empty empty Load-File/Sample 15 6 1
8 -62784 -24198 -24198;
#X obj 499 412 bng 10 250 10 0 empty empty Stop 15 6 1 8 -62784 -24198
-258699;
#X obj 618 443 bng 10 250 50 0 empty empty Reset -7 15 1 7 -62784 -24198
-24198;
#X obj 121 473 *~ 0;
#X obj 122 500 +~ 1;
#X obj 120 409 phasor~ 0;
#X obj 121 528 tabread4~ array1;
#X obj 163 445 r smpl;
#X msg 120 290 1000;
#X obj 120 327 / 0;
#X obj 165 295 r msec;
#X msg 142 364 0;
#X msg 187 381 0;
#X obj 120 255 r play;
#X obj 154 326 r pause;
#X obj 187 353 r stop;
#X obj 424 453 s stop;
#X obj 433 412 bng 10 250 10 0 empty empty Pause 15 6 1 8 -62784 -24198
-166441;
#X obj 361 453 s pause;
#X obj 533 273 s pitch;
#X obj 20 312 r pitch;
#X msg 624 104 1000;
#X obj 624 133 / 0;
#X obj 676 95 r msec;
#X obj 624 81 bng 15 250 50 0 empty empty empty 17 7 0 10 -262144 -1
-1;
#X obj 624 48 r reset;
#X obj 701 549 tabread4~ array1;
#X obj 14 438 snapshot~;
#X obj 701 524 line~;
#X obj 14 405 bang~;
#X obj 745 360 s pause;
#X obj 722 457 s play;
#X text 11 623 --------------------------------;
#X obj 14 568 select 0;
#X obj 14 518 bng 15 250 50 0 empty empty empty 17 7 0 10 -262144 -1
-1;
#X obj 14 596 s stop;
#X obj 14 491 moses 0.99;
#X msg 14 541 1;
#X obj 61 361 float;
#X obj 50 541 r loop;
#X obj 415 166 s reset;
#X obj 722 438 bng 15 250 50 0 empty empty empty 17 7 0 10 -262144
-1 -1;
#X obj 393 380 hsl 120 8 0.01 1 0 0 empty empty empty 86 15 1 8 -99865
-24198 -62784 0 1;
#X obj 33 465 s time;
#X obj 479 453 r time;
#X obj 746 295 r smpl;
#X obj 651 291 hsl 40 10 0.01 0.09 0 0 empty empty Scratch -1 18 1
8 -62784 -24198 -24198 0 0;
#X obj 701 498 pack 0 200;
#X obj 225 381 r phase;
#X obj 633 362 s phase;
#X obj 701 321 * 0;
#X msg 722 388 200;
#X obj 722 413 delay 200;
#X obj 624 162 s slider;
#X text 649 623 -----------------------;
#X text 644 242 --------Scratch-------;
#X text 574 197 ----------------------;
#X text 578 9 -----Speed Change-----;
#X text 301 496 --------------------------------------;
#X text 302 240 ---------------Layout---------------;
#N canvas 0 0 450 300 (subpatch) 0;
#X array array1 7712 float 2;
#X coords 0 0 7712 1 200 140 0;
#X restore 31 34 graph;
#X text 16 196 -----------------------------;
#X text 21 7 -------Open Sample/File------;
#X obj 138 587 outlet~;
#X obj 364 529 outlet;
#X connect 0 0 8 0;
#X connect 1 0 3 0;
#X connect 2 0 5 0;
#X connect 2 0 7 0;
#X connect 3 0 0 0;
#X connect 4 0 6 0;
#X connect 4 0 64 0;
#X connect 5 0 4 0;
#X connect 9 0 2 0;
#X connect 16 0 1 0;
#X connect 17 0 18 0;
#X connect 21 0 43 0;
#X connect 23 0 19 0;
#X connect 23 0 88 0;
#X connect 24 0 15 0;
#X connect 25 0 40 0;
#X connect 26 0 22 0;
#X connect 27 0 28 0;
#X connect 28 0 30 0;
#X connect 29 0 27 0;
#X connect 29 0 51 0;
#X connect 30 0 87 0;
#X connect 31 0 27 1;
#X connect 32 0 33 0;
#X connect 33 0 29 0;
#X connect 34 0 33 1;
#X connect 35 0 29 0;
#X connect 36 0 29 0;
#X connect 36 0 29 1;
#X connect 37 0 32 0;
#X connect 37 0 62 0;
#X connect 38 0 35 0;
#X connect 39 0 36 0;
#X connect 41 0 42 0;
#X connect 44 0 62 0;
#X connect 45 0 46 0;
#X connect 46 0 21 0;
#X connect 46 0 77 0;
#X connect 47 0 46 1;
#X connect 47 0 48 0;
#X connect 48 0 45 0;
#X connect 49 0 48 0;
#X connect 51 0 60 0;
#X connect 51 0 67 0;
#X connect 52 0 50 0;
#X connect 53 0 51 0;
#X connect 57 1 59 0;
#X connect 58 0 61 0;
#X connect 60 1 58 0;
#X connect 61 0 57 0;
#X connect 62 0 29 0;
#X connect 63 0 57 1;
#X connect 65 0 55 0;
#X connect 68 0 66 0;
#X connect 69 0 74 1;
#X connect 70 0 74 0;
#X connect 71 0 52 0;
#X connect 72 0 29 1;
#X connect 74 0 54 0;
#X connect 74 0 73 0;
#X connect 74 0 75 0;
#X connect 74 0 71 0;
#X connect 75 0 76 0;
#X connect 76 0 65 0;
#X coords 0 0 1 1 300 145 1 300 300;
