#N canvas 0 4 1011 709 12;
#X obj 5 489 +~;
#X obj 50 343 *~;
#X obj 224 217 snapshot~;
#X obj 223 166 osc~;
#X obj 276 188 metro 1;
#X obj 224 274 * 1;
#X obj 276 161 loadbang;
#X obj 87 376 s~ FeedbackFL;
#X obj 50 79 r~ FeedbackFL;
#X obj 243 247 r DepthFL;
#X obj 223 132 r FreqFL;
#X obj 75 312 r AmountFL;
#X obj 49 205 r Del_ModFL;
#X obj 224 343 s Del_ModFL;
#X obj 401 100 cnv 15 340 250 empty empty Flanger 20 12 0 14 -66577
-24198 0;
#X obj 675 162 vsl 15 128 0 0.9 0 0 empty empty Dry/Wet -13 140 0 8
-62784 -24198 -24198 0 1;
#X obj 521 162 vsl 15 128 0 20 0 0 empty empty Mod_Freq -18 140 0 8
-62784 -24198 -24198 0 1;
#X obj 599 162 vsl 15 128 0 1 0 0 empty empty Depth -10 140 0 8 -62784
-24198 -24198 0 1;
#X obj 607 377 s DepthFL;
#X obj 513 377 s FreqFL;
#X obj 721 377 s AmountFL;
#X obj 419 127 tgl 15 0 empty empty On/Off 20 8 0 8 -62784 -24198 -24198
0 1;
#X obj 368 64 s BypassFL;
#X obj 4 639 outlet~;
#X obj 6 13 inlet~;
#X obj 419 324 tgl 15 0 empty empty Dry_Out 18 8 0 8 -62784 -24198
-24198 0 1;
#X obj 477 43 loadbang;
#X msg 477 70 1;
#X obj 564 69 s SerialConFL;
#X msg 192 524 1;
#X obj 193 495 select 0;
#X obj 66 550 *~ 1;
#X obj 4 535 *~ 0;
#X obj 66 587 *~ 1;
#X obj 73 471 r BypassFL;
#X obj 66 508 r~ DrySignalFL;
#X obj 110 559 r SerialConFL;
#X msg 234 524 0;
#X obj 32 108 +~;
#X obj 51 441 *~;
#X obj 70 408 r DepthFL;
#X obj 224 314 + 1;
#X msg 702 442 1;
#X obj 702 471 - 1;
#X obj 702 415 bang;
#X obj 6 271 *~;
#X obj 702 503 s FLDryVol;
#X obj 25 168 r FLDryVol;
#X obj 49 54 s~ DrySignalFL;
#X obj 31 134 delwrite~ delFL 5000;
#X obj 49 272 delread~ delFL 1;
#X obj 437 162 vsl 15 128 0 10 0 0 empty empty Del_Time(ms) -25 140
0 8 -62784 -24198 -24198 0 1;
#X obj 49 237 + 5;
#X obj 455 221 nbx 4 14 0 10 0 0 empty empty empty -25 23 0 8 -62784
-24198 -24198 0 256;
#X obj 540 222 nbx 4 14 0 20 0 0 empty empty empty -25 23 0 8 -62784
-24198 -24198 0 256;
#X obj 619 222 nbx 4 14 0 100 0 0 empty empty empty -25 23 0 8 -62784
-24198 -24198 0 256;
#X obj 694 223 nbx 4 14 0 100 0 0 empty empty empty -25 23 0 8 -62784
-24198 -24198 0 256;
#X obj 397 377 s FLDelayTime;
#X obj 99 236 r FLDelayTime;
#X obj 761 254 * 111.5;
#X obj 769 306 * 100;
#X obj 329 269 loadbang;
#X msg 336 303 0;
#X connect 0 0 32 0;
#X connect 1 0 7 0;
#X connect 1 0 39 0;
#X connect 2 0 5 0;
#X connect 3 0 2 0;
#X connect 4 0 2 0;
#X connect 5 0 41 0;
#X connect 6 0 4 0;
#X connect 8 0 38 1;
#X connect 9 0 5 1;
#X connect 10 0 3 0;
#X connect 11 0 1 1;
#X connect 12 0 52 0;
#X connect 15 0 20 0;
#X connect 15 0 43 1;
#X connect 15 0 44 0;
#X connect 15 0 59 0;
#X connect 16 0 19 0;
#X connect 16 0 54 0;
#X connect 17 0 18 0;
#X connect 17 0 60 0;
#X connect 21 0 22 0;
#X connect 24 0 38 0;
#X connect 24 0 45 0;
#X connect 24 0 48 0;
#X connect 25 0 28 0;
#X connect 26 0 27 0;
#X connect 27 0 25 0;
#X connect 29 0 31 1;
#X connect 30 0 29 0;
#X connect 30 1 37 0;
#X connect 31 0 33 0;
#X connect 32 0 23 0;
#X connect 33 0 23 0;
#X connect 34 0 30 0;
#X connect 34 0 32 1;
#X connect 35 0 31 0;
#X connect 36 0 33 1;
#X connect 37 0 31 1;
#X connect 38 0 49 0;
#X connect 39 0 0 1;
#X connect 40 0 39 1;
#X connect 41 0 13 0;
#X connect 42 0 43 0;
#X connect 43 0 46 0;
#X connect 44 0 42 0;
#X connect 45 0 0 0;
#X connect 47 0 45 1;
#X connect 50 0 1 0;
#X connect 51 0 53 0;
#X connect 51 0 57 0;
#X connect 52 0 50 0;
#X connect 58 0 52 1;
#X connect 59 0 56 0;
#X connect 60 0 55 0;
#X connect 61 0 62 0;
#X connect 62 0 25 0;
#X coords 0 -1 1 1 340 250 1 400 100;
