#N canvas 0 0 1011 697 12;
#X obj 68 95 delwrite~ del1 1000;
#X obj 370 465 snapshot~;
#X obj 370 434 osc~;
#X obj 435 437 metro 1;
#X obj 370 522 * 1;
#X obj 435 410 loadbang;
#X obj 370 638 *~;
#X obj 370 583 delread~ del1 1;
#X obj 370 554 + 20;
#X obj 67 121 delwrite~ del2 1000;
#X obj 67 151 delwrite~ del3 1000;
#X obj 67 180 delwrite~ del4 1000;
#X obj 369 678 *~;
#X obj 411 494 r Depth1;
#X obj 370 402 r Freq1;
#X obj 415 611 r Bypass1;
#X obj 414 650 r Vol1;
#X obj 253 57 cnv 15 770 260 empty empty Multi_Voice_Chorus 20 12 0
14 -66577 -24198 0;
#X obj 357 104 cnv 15 150 200 empty empty Chorus_1 20 12 0 10 -128992
-24198 0;
#X obj 377 153 vsl 15 128 0 3 0 0 empty empty Freq -7 140 0 8 -62784
-24198 -24198 6700 1;
#X obj 425 153 vsl 15 128 0 5 0 0 empty empty Depth -10 140 0 8 -62784
-24198 -24198 10500 1;
#X obj 472 153 vsl 15 128 0 1 0 0 empty empty Volume -10 140 0 8 -62784
-24198 -24198 8000 1;
#X obj 394 347 s Depth1;
#X obj 370 374 s Freq1;
#X obj 472 114 tgl 15 0 empty empty On/Off -10 22 0 8 -62784 -24198
-24198 0 1;
#X obj 436 10 s Bypass1;
#X obj 445 322 s Vol1;
#X obj 523 104 cnv 15 150 200 empty empty Chorus_2 20 12 0 10 -128992
-24198 0;
#X obj 543 153 vsl 15 128 0 3 0 0 empty empty Freq -7 140 0 8 -62784
-24198 -24198 0 1;
#X obj 591 153 vsl 15 128 0 5 0 0 empty empty Depth -10 140 0 8 -62784
-24198 -24198 0 1;
#X obj 638 153 vsl 15 128 0 1 0 0 empty empty Volume -10 140 0 8 -62784
-24198 -24198 0 1;
#X obj 638 114 tgl 15 0 empty empty On/Off -10 22 0 8 -62784 -24198
-24198 0 1;
#X obj 611 321 s Vol2;
#X obj 563 347 s Depth2;
#X obj 539 374 s Freq2;
#X obj 602 10 s Bypass2;
#X obj 539 465 snapshot~;
#X obj 539 434 osc~;
#X obj 603 435 metro 1;
#X obj 539 522 * 1;
#X obj 603 408 loadbang;
#X obj 539 638 *~;
#X obj 539 554 + 20;
#X obj 538 678 *~;
#X obj 539 402 r Freq2;
#X obj 581 494 r Depth2;
#X obj 540 583 delread~ del2 1;
#X obj 584 611 r Bypass2;
#X obj 583 650 r Vol2;
#X obj 28 757 +~;
#X obj 28 784 +~;
#X obj 296 128 vsl 15 128 0 1 0 0 empty empty Dry_Volume -22 140 0
8 -62784 -24198 -24198 0 1;
#X obj 689 103 cnv 15 150 200 empty empty Chorus_3 20 12 0 10 -128992
-24198 0;
#X obj 709 152 vsl 15 128 0 3 0 0 empty empty Freq -7 140 0 8 -62784
-24198 -24198 0 1;
#X obj 757 152 vsl 15 128 0 5 0 0 empty empty Depth -10 140 0 8 -62784
-24198 -24198 0 1;
#X obj 804 152 vsl 15 128 0 1 0 0 empty empty Volume -10 140 0 8 -62784
-24198 -24198 0 1;
#X obj 804 113 tgl 15 0 empty empty On/Off -10 22 0 8 -62784 -24198
-24198 0 1;
#X obj 855 103 cnv 15 150 200 empty empty Chorus_4 20 12 0 10 -128992
-24198 0;
#X obj 875 152 vsl 15 128 0 3 0 0 empty empty Freq -7 140 0 8 -62784
-24198 -24198 0 1;
#X obj 923 152 vsl 15 128 0 5 0 0 empty empty Depth -10 140 0 8 -62784
-24198 -24198 0 1;
#X obj 970 152 vsl 15 128 0 1 0 0 empty empty Volume -10 140 0 8 -62784
-24198 -24198 0 1;
#X obj 970 113 tgl 15 0 empty empty On/Off -10 22 0 8 -62784 -24198
-24198 0 1;
#X obj 705 462 snapshot~;
#X obj 705 431 osc~;
#X obj 769 432 metro 1;
#X obj 705 519 * 1;
#X obj 769 405 loadbang;
#X obj 705 635 *~;
#X obj 705 551 + 20;
#X obj 704 675 *~;
#X obj 873 462 snapshot~;
#X obj 873 431 osc~;
#X obj 937 432 metro 1;
#X obj 873 519 * 1;
#X obj 937 405 loadbang;
#X obj 873 635 *~;
#X obj 873 551 + 20;
#X obj 872 675 *~;
#X obj 28 812 +~;
#X obj 28 839 +~;
#X obj 778 321 s Vol3;
#X obj 729 345 s Depth3;
#X obj 705 372 s Freq3;
#X obj 769 9 s Bypass3;
#X obj 749 647 r Vol3;
#X obj 750 608 r Bypass3;
#X obj 706 580 delread~ del3 1;
#X obj 747 491 r Depth3;
#X obj 705 399 r Freq3;
#X obj 945 322 s Vol4;
#X obj 900 345 s Depth4;
#X obj 873 371 s Freq4;
#X obj 873 399 r Freq4;
#X obj 915 491 r Depth4;
#X obj 874 580 delread~ del4 1;
#X obj 918 608 r Bypass4;
#X obj 917 647 r Vol4;
#X obj 936 9 s Bypass4;
#X obj 157 280 s DryVol;
#X obj 47 490 r DryVol;
#X obj 29 998 outlet~;
#X obj 27 31 inlet~;
#X obj 274 90 tgl 15 0 empty empty On/Off 18 8 0 8 -62784 -24198 -24198
0 1;
#X msg 243 906 1;
#X msg 285 906 0;
#X obj 243 877 select 0;
#X obj 60 218 s~ DrySignalMVC;
#X obj 104 897 r~ DrySignalMVC;
#X obj 28 519 *~;
#X obj 97 931 *~ 1;
#X obj 29 932 *~ 0;
#X obj 96 971 *~ 1;
#X obj 255 24 s switchRV;
#X obj 132 839 r switchRV;
#X obj 268 290 tgl 15 0 empty empty Dry_Out 18 8 0 8 -62784 -24198
-24198 0 1;
#X obj 268 327 s DryOutRV;
#X obj 143 946 r DryOutRV;
#X obj 192 327 loadbang;
#X msg 192 358 0;
#X connect 1 0 4 0;
#X connect 2 0 1 0;
#X connect 3 0 1 0;
#X connect 4 0 8 0;
#X connect 5 0 3 0;
#X connect 6 0 12 0;
#X connect 7 0 6 0;
#X connect 8 0 7 0;
#X connect 12 0 49 1;
#X connect 13 0 4 1;
#X connect 14 0 2 0;
#X connect 15 0 6 1;
#X connect 16 0 12 1;
#X connect 19 0 23 0;
#X connect 20 0 22 0;
#X connect 21 0 26 0;
#X connect 24 0 25 0;
#X connect 28 0 34 0;
#X connect 29 0 33 0;
#X connect 30 0 32 0;
#X connect 31 0 35 0;
#X connect 36 0 39 0;
#X connect 37 0 36 0;
#X connect 38 0 36 0;
#X connect 39 0 42 0;
#X connect 40 0 38 0;
#X connect 41 0 43 0;
#X connect 42 0 46 0;
#X connect 43 0 50 1;
#X connect 44 0 37 0;
#X connect 45 0 39 1;
#X connect 46 0 41 0;
#X connect 47 0 41 1;
#X connect 48 0 43 1;
#X connect 49 0 50 0;
#X connect 50 0 78 0;
#X connect 51 0 98 0;
#X connect 53 0 82 0;
#X connect 54 0 81 0;
#X connect 55 0 80 0;
#X connect 56 0 83 0;
#X connect 58 0 91 0;
#X connect 59 0 90 0;
#X connect 60 0 89 0;
#X connect 61 0 97 0;
#X connect 62 0 65 0;
#X connect 63 0 62 0;
#X connect 64 0 62 0;
#X connect 65 0 68 0;
#X connect 66 0 64 0;
#X connect 67 0 69 0;
#X connect 68 0 86 0;
#X connect 69 0 78 1;
#X connect 70 0 73 0;
#X connect 71 0 70 0;
#X connect 72 0 70 0;
#X connect 73 0 76 0;
#X connect 74 0 72 0;
#X connect 75 0 77 0;
#X connect 76 0 94 0;
#X connect 77 0 79 1;
#X connect 78 0 79 0;
#X connect 79 0 110 0;
#X connect 84 0 69 1;
#X connect 85 0 67 1;
#X connect 86 0 67 0;
#X connect 87 0 65 1;
#X connect 88 0 63 0;
#X connect 92 0 71 0;
#X connect 93 0 73 1;
#X connect 94 0 75 0;
#X connect 95 0 75 1;
#X connect 96 0 77 1;
#X connect 99 0 108 1;
#X connect 101 0 0 0;
#X connect 101 0 9 0;
#X connect 101 0 10 0;
#X connect 101 0 11 0;
#X connect 101 0 106 0;
#X connect 101 0 108 0;
#X connect 102 0 112 0;
#X connect 103 0 109 1;
#X connect 104 0 109 1;
#X connect 105 0 103 0;
#X connect 105 1 104 0;
#X connect 107 0 109 0;
#X connect 108 0 49 0;
#X connect 109 0 111 0;
#X connect 110 0 100 0;
#X connect 111 0 100 0;
#X connect 113 0 105 0;
#X connect 113 0 110 1;
#X connect 114 0 115 0;
#X connect 116 0 111 1;
#X connect 117 0 118 0;
#X connect 118 0 114 0;
#X coords 0 -1 1 1 770 260 1 252 56;
