#N canvas -10 -4 1007 673 12;
#X obj 309 63 FeedbackDelay2;
#X obj 577 63 FeedbackDelay3;
#X obj 845 63 FeedbackDelay4;
#X obj 40 16 inlet~;
#X obj 42 369 +~;
#X obj 42 402 +~;
#X obj 42 436 +~;
#X obj 42 501 rpole~;
#X obj 42 476 rzero_rev~;
#X obj 42 563 rpole~;
#X obj 42 538 rzero_rev~;
#X obj 42 597 outlet~;
#X obj 41 60 FeedbackDelay1;
#X obj 274 822 *~;
#X obj 476 417 inlet~;
#X obj 602 959 outlet~;
#X obj 274 715 r Del_TimeFD1;
#X obj 274 748 delread~ delFD1 1;
#X obj 305 797 r FeedbackFD1;
#X obj 911 378 vsl 15 128 0 1 0 0 empty empty empty 0 -8 0 8 -262144
-1 -1 0 1;
#X obj 911 518 * -1;
#X floatatom 911 546 5 0 0 0 - - -;
#X obj 581 508 *~;
#X obj 497 608 delwrite~ delAP1 5000;
#X obj 501 657 delread~ delAP1 1;
#X obj 503 727 +~;
#X connect 0 0 4 1;
#X connect 1 0 5 1;
#X connect 2 0 6 1;
#X connect 3 0 0 0;
#X connect 3 0 1 0;
#X connect 3 0 2 0;
#X connect 3 0 12 0;
#X connect 4 0 5 0;
#X connect 5 0 6 0;
#X connect 6 0 8 0;
#X connect 7 0 10 0;
#X connect 8 0 7 0;
#X connect 9 0 11 0;
#X connect 10 0 9 0;
#X connect 12 0 4 0;
#X connect 14 0 22 0;
#X connect 14 0 23 0;
#X connect 16 0 17 0;
#X connect 17 0 13 0;
#X connect 18 0 13 1;
#X connect 19 0 20 0;
#X connect 20 0 21 0;
#X connect 20 0 22 1;
#X connect 21 0 25 1;
#X connect 24 0 25 0;
#X coords 0 -1 1 1 85 60 1 100 100;
