#N canvas 0 0 1011 681 12;
#X obj 70 30 FilePlayer;
#X obj 71 621 dac~;
#X obj 587 210 SchroederReverb;
#X obj 308 231 FeedbackDelay;
#X obj 40 569 Vibrato;
#X obj 351 570 Flanger;
#X obj 705 563 MultiVoiceChorus;
#X obj 450 858 dac~;
#X obj 38 232 Delay;
#X connect 0 0 4 0;
#X connect 0 0 5 0;
#X connect 0 0 3 0;
#X connect 0 0 2 0;
#X connect 0 0 6 0;
#X connect 0 0 8 0;
#X connect 2 0 1 0;
#X connect 2 0 1 1;
#X connect 2 0 7 0;
#X connect 2 0 7 1;
#X connect 3 0 7 0;
#X connect 3 0 7 1;
#X connect 4 0 7 0;
#X connect 4 0 7 1;
#X connect 5 0 7 0;
#X connect 5 0 7 1;
#X connect 6 0 7 0;
#X connect 6 0 7 1;
#X connect 8 0 7 0;
#X connect 8 0 7 1;
